<svg aria-hidden="true" style="position: absolute; width: 0; height: 0; overflow: hidden;" version="1.1" xmlns="http://www.w3.org/2000/svg" xmlns:xlink="http://www.w3.org/1999/xlink">
<defs>
<symbol id="icon-logo" viewBox="0 0 35 32">
<path d="M17.384 14.109c1.632-4.366-1.747-6.756-3.988-8.327-0.428-0.321-0.856-0.621-1.204-0.895-0.606-0.506-1.063-1.171-1.307-1.931l-0.008-0.030c-0.12-0.368-0.189-0.792-0.189-1.232 0-0.398 0.057-0.784 0.162-1.148l-0.007 0.029c0.011-0.036 0.017-0.078 0.017-0.121 0-0.132-0.057-0.251-0.148-0.333l-0-0c-0.082-0.076-0.193-0.122-0.314-0.122-0.057 0-0.111 0.010-0.161 0.029l0.003-0.001c-0.796 0.315-1.483 0.727-2.090 1.231l0.012-0.010c-0.591 0.451-1.068 1.021-1.402 1.675l-0.013 0.028c-0.319 0.625-0.507 1.362-0.509 2.143v0c-0.423 0.328-0.796 0.713-1.109 1.144-0.514 0.684-0.823 1.547-0.823 2.483 0 0.070 0.002 0.139 0.005 0.208l-0-0.010c-0.669 0.607-1.18 1.375-1.472 2.245l-0.011 0.037c-0.165 0.487-0.26 1.048-0.26 1.631 0 0.38 0.041 0.751 0.117 1.108l-0.006-0.034c-0.271 0.163-0.48 0.404-0.598 0.692l-0.003 0.010c-0.118 0.292-0.135 0.615-0.047 0.918 0.086 0.301 0.271 0.568 0.526 0.757s0.566 0.291 0.884 0.288h0.030v2.483c0 0.253 0.101 0.494 0.282 0.672s0.426 0.278 0.682 0.278h0.749l1.221 10.43c0.025 0.232 0.136 0.446 0.313 0.603s0.404 0.242 0.642 0.242h5.080c0.237 0 0.466-0.087 0.643-0.243s0.29-0.371 0.317-0.602l1.221-10.429h0.749c0.256 0 0.501-0.101 0.682-0.278 0.174-0.171 0.282-0.409 0.282-0.673 0-0 0-0 0-0v0-2.483h0.029c0.387 0 0.76-0.152 1.033-0.421s0.428-0.637 0.428-1.019c0-0.005 0-0.010 0-0.015 0-0.397-0.164-0.755-0.428-1.010l-0-0-0.013 0.004zM6.388 6.188c0.617 2.285 2.998 3.183 5.171 3.987 0.070 0.043 0.154 0.068 0.244 0.068 0.197 0 0.365-0.121 0.435-0.293l0.001-0.003c0.020-0.049 0.032-0.106 0.032-0.166 0-0.154-0.076-0.29-0.193-0.372l-0.001-0.001c-0.053-0.038-0.116-0.065-0.184-0.078l-0.003-0c-2.339-0.875-4.546-1.689-4.712-4.024-0.004-0.070-0.007-0.151-0.007-0.233 0-0.593 0.134-1.155 0.373-1.657l-0.010 0.023c0.284-0.599 0.693-1.096 1.198-1.475l0.010-0.007c0.326-0.266 0.675-0.504 1.045-0.708-0.011 0.132-0.018 0.285-0.018 0.439s0.007 0.308 0.019 0.459l-0.001-0.020c0.050 0.669 0.236 1.321 0.546 1.918 0.324 0.613 0.747 1.13 1.254 1.549l0.008 0.007c0.355 0.3 0.797 0.608 1.285 0.937 1.127 0.798 2.407 1.689 3.221 2.897 0.508 0.714 0.813 1.604 0.813 2.565 0 0.621-0.127 1.213-0.357 1.75l0.011-0.029h-1.893c-3.902 0-8.387-1.064-9.274-4.045-0.083-0.279-0.131-0.599-0.131-0.93 0-0.337 0.049-0.662 0.141-0.969l-0.006 0.024c0.19-0.635 0.54-1.174 1.004-1.589l0.003-0.003-0.022-0.021zM9.901 20.583l1.432 1.41-1.432 1.411-1.431-1.419 1.432-1.401zM13.182 24.285l-1.182 1.165-1.432-1.411 1.432-1.406 1.242 1.221-0.060 0.43zM9.901 27.52l-1.431-1.411 1.432-1.41 1.43 1.41-1.431 1.411zM9.245 24.049l-1.431 1.411-1.191-1.173-0.051-0.422 1.242-1.221 1.431 1.406zM7.155 26.109l-0.287 0.283-0.073-0.642 0.36 0.359zM7.005 27.554l0.809-0.798 1.572 1.563c0.008 0.031 0.018 0.062 0.029 0.093h-2.312l-0.099-0.857zM11.991 26.755l0.81 0.798-0.099 0.845h-2.377l1.667-1.642zM12.934 26.393l-0.287-0.284 0.364-0.359-0.077 0.642zM13.362 22.702l-0.715-0.718 0.908-0.895-0.193 1.613zM11.987 21.342l-1.358-1.334h2.716l-1.357 1.334zM7.811 21.342l-1.358-1.334h2.716l-1.357 1.334zM12.437 30.361h-5.077c-0.016-0.002-0.028-0.014-0.030-0.029l-0-0-0.12-1.013h5.38l-0.115 1.013c-0.001 0.009-0.005 0.017-0.012 0.022l-0 0c-0.006 0.005-0.014 0.008-0.023 0.008-0 0-0 0-0 0v0h-0.004zM16.365 15.651h-1.491c-0.013-0.001-0.028-0.002-0.044-0.002-0.121 0-0.232 0.046-0.315 0.12l0-0c-0.093 0.084-0.152 0.206-0.152 0.341 0 0.067 0.014 0.131 0.040 0.188l-0.001-0.003c0.054 0.119 0.154 0.21 0.276 0.25l0.003 0.001c0.044 0.015 0.094 0.023 0.146 0.023 0.016 0 0.032-0.001 0.047-0.002l-0.002 0h0.531v2.483c-0.002 0.017-0.016 0.029-0.033 0.029-0 0-0 0-0 0v0h-10.955c-0 0-0 0-0 0-0.017 0-0.031-0.013-0.033-0.029l-0-0v-2.483h8.485c0.12-0.011 0.225-0.066 0.301-0.148l0-0c0.075-0.081 0.121-0.19 0.121-0.309s-0.046-0.228-0.121-0.31l0 0c-0.076-0.082-0.181-0.137-0.299-0.149l-0.002-0h-9.425c-0.014 0.001-0.030 0.002-0.047 0.002-0.138 0-0.264-0.052-0.359-0.137l0.001 0c-0.106-0.096-0.172-0.234-0.173-0.387v-0c0 0 0-0 0-0 0-0.153 0.066-0.291 0.172-0.385l0.001-0c0.094-0.085 0.22-0.137 0.357-0.137 0.017 0 0.034 0.001 0.051 0.002l-0.002-0h0.973c0.12-0.012 0.224-0.067 0.3-0.149l0-0c0.075-0.081 0.121-0.19 0.121-0.309s-0.046-0.228-0.121-0.31l0 0c-0.076-0.082-0.181-0.137-0.299-0.148l-0.002-0h-0.855c-0.050-0.252-0.079-0.541-0.079-0.837 0-0.391 0.050-0.771 0.145-1.133l-0.007 0.031c0.174-0.668 0.476-1.249 0.881-1.743l-0.006 0.008c0.3 0.92 1.070 2.178 2.998 3.179 1.812 0.933 4.211 1.41 7.128 1.41h1.714c0.014-0.001 0.030-0.002 0.047-0.002 0.138 0 0.264 0.052 0.359 0.137l-0-0c0.106 0.096 0.172 0.234 0.173 0.387v0c0 0 0 0.001 0 0.001 0 0.153-0.067 0.29-0.172 0.385l-0 0c-0.094 0.085-0.219 0.137-0.357 0.137-0.017 0-0.034-0.001-0.051-0.002l0.002 0h0.029zM19.859 28.392l-0.342 0.525 0.008 0.004 0.335-0.529zM23.54 28.568l0.627-0.013-0.017-0.724-0.714 0.12 0.105 0.617zM23.583 30.495l0.16 0.606 0.477-0.126-0.011-0.493-0.627 0.013zM18.752 30.588l0.141-0.611h-0.004l-0.136 0.611zM16.367 29.523v0zM15.505 27.565l0.626 0.003v-0.003h-0.626zM15.804 26.196l-0.562-0.277v0.002l0.562 0.275zM17.724 24.557l0.223 0.586 0.002-0.001-0.224-0.585zM23.877 24.397l0.624 0.049 0.042-0.529-0.515-0.127-0.151 0.607zM23.724 26.361l-0.116 0.615 0.686 0.131 0.055-0.697-0.625-0.048zM22.055 25.558c-0.94 0-1.731 0.1-2.307 0.354-0.296 0.13-0.564 0.313-0.76 0.572-0.187 0.244-0.299 0.554-0.299 0.89 0 0.005 0 0.011 0 0.016v-0.001h1.253c0-0.073 0.017-0.115 0.044-0.149 0.033-0.042 0.106-0.11 0.267-0.181 0.337-0.148 0.916-0.248 1.802-0.248v-1.253zM18.688 27.389c0 0.644 0.289 1.176 0.829 1.528l0.683-1.049c-0.185-0.121-0.259-0.259-0.259-0.478h-1.253zM19.524 28.921c0.511 0.323 1.187 0.445 1.944 0.445v-1.253c-0.654 0-1.052-0.11-1.274-0.251l-0.669 1.058zM21.468 29.367c0.743 0 1.469-0.061 2.178-0.18l-0.21-1.235c-0.585 0.103-1.259 0.163-1.947 0.163-0.007 0-0.015 0-0.022-0h0.001v1.253zM22.915 28.583l0.042 1.927 1.253-0.028-0.043-1.927-1.252 0.028zM23.424 29.89c-0.716 0.189-1.506 0.285-2.372 0.285v1.252c0.96 0 1.858-0.107 2.691-0.327l-0.319-1.211zM21.053 30.175c-0.884 0-1.6-0.070-2.159-0.199l-0.281 1.221c0.681 0.157 1.499 0.23 2.44 0.23v-1.252zM18.889 29.976c-0.598-0.133-1.029-0.275-1.317-0.416l-0.55 1.125c0.413 0.202 0.952 0.371 1.594 0.514l0.273-1.223zM17.572 29.56c-0.305-0.147-0.568-0.319-0.806-0.518l0.006 0.005-0.81 0.955c0.313 0.265 0.668 0.493 1.061 0.684l0.549-1.125zM16.772 29.045c-0.426-0.36-0.644-0.83-0.64-1.476l-1.253-0.006c-0.005 0.985 0.352 1.819 1.085 2.438l0.808-0.957zM16.132 27.565c0-0.421 0.082-0.781 0.236-1.095l-1.126-0.551c-0.23 0.468-0.364 1.018-0.364 1.6 0 0.016 0 0.032 0 0.048l-0-0.002h1.252zM16.367 26.472c0.285-0.579 0.788-1.029 1.581-1.331l-0.445-1.171c-1.034 0.392-1.811 1.036-2.26 1.948l1.124 0.553zM17.95 25.142c0.833-0.32 1.763-0.485 2.796-0.485v-1.252c-1.168 0-2.252 0.186-3.245 0.568l0.45 1.17zM20.746 24.657c1.054 0 2.047 0.118 2.981 0.349l0.301-1.215c-0.966-0.245-2.074-0.386-3.216-0.386-0.023 0-0.046 0-0.069 0h0.004v1.253zM23.253 24.349l-0.152 1.963 1.249 0.098 0.152-1.964-1.248-0.097zM23.842 25.746c-0.533-0.112-1.149-0.18-1.78-0.189l-0.006-0v1.253c0.44 0 0.957 0.053 1.553 0.166l0.233-1.229zM29.952 26.746l-0.003 0.627 0.637 0.003-0.007-0.637-0.627 0.007zM29.683 25.933l-0.426 0.459 0.006 0.005 0.421-0.463zM28.124 25.994l0.434 0.452 0.004-0.005-0.438-0.447zM27.745 26.734l-0.618-0.101-0.12 0.723 0.733 0.004 0.003-0.627zM32.349 30.073l0.379 0.499 0.225-0.171 0.021-0.281-0.625-0.047zM30.998 30.575l-0.135-0.612-0.003 0.001 0.138 0.611zM26.301 30.403l-0.213 0.589 0.005 0.002 0.208-0.591zM25.231 29.835l-0.389 0.491 0.008 0.006 0.381-0.497zM24.515 28.936l-0.562 0.278 0.002 0.003 0.56-0.28zM25.249 25.138v0zM30.973 24.459l0.25-0.574-0.006-0.003-0.244 0.577zM32.41 25.78l-0.563 0.274 0.002 0.003 0.561-0.278zM32.655 26.875l0.625 0.045 0.002-0.023v-0.023h-0.627zM32.582 27.884l-0.003 0.627 0.585 0.003 0.042-0.584-0.624-0.045zM27.622 27.859l0.003-0.627-0.817-0.003 0.208 0.79 0.605-0.16zM28.332 28.734l-0.309 0.545 0.003 0.002 0.306-0.547zM32.136 28.52v-0.626h-0.125l-0.115 0.048 0.241 0.578zM32.466 28.52l0.625 0.047 0.051-0.674h-0.675v0.627zM30.579 26.739c-0.005-0.453-0.109-0.939-0.475-1.271l-0.842 0.928c-0.007-0.007 0.008 0.002 0.025 0.056 0.019 0.057 0.037 0.153 0.039 0.301l1.253-0.013zM30.109 25.474c-0.328-0.305-0.76-0.406-1.185-0.406v1.253c0.244 0 0.318 0.059 0.333 0.071l0.852-0.918zM28.925 25.068c-0.467 0-0.9 0.147-1.24 0.479l0.877 0.894c0.068-0.067 0.168-0.12 0.362-0.12v-1.253zM27.689 25.542c-0.294 0.283-0.497 0.659-0.562 1.080l-0.001 0.011 1.236 0.203c0.020-0.154 0.091-0.289 0.195-0.39l0-0-0.867-0.904zM27.741 27.361l2.208 0.012 0.007-1.252-2.208-0.013-0.007 1.252zM31.971 29.575c-0.137 0.104-0.472 0.248-1.108 0.388l0.269 1.224c0.661-0.146 1.227-0.335 1.595-0.615l-0.756-0.997zM30.86 29.964c-0.525 0.127-1.129 0.202-1.75 0.205h-0.002v1.253c0.662 0 1.339-0.080 2.028-0.236l-0.276-1.221zM29.108 30.168c-0.59 0-1.076-0.028-1.464-0.080l-0.168 1.241c0.461 0.062 1.006 0.092 1.631 0.092v-1.253zM27.645 30.088c-0.381-0.051-0.758-0.143-1.135-0.275l-0.417 1.181c0.455 0.16 0.917 0.273 1.384 0.335l0.168-1.241zM26.515 29.815c-0.345-0.121-0.644-0.282-0.911-0.483l0.009 0.006-0.762 0.994c0.356 0.274 0.772 0.492 1.238 0.66l0.427-1.177zM25.619 29.343c-0.227-0.185-0.411-0.414-0.539-0.675l-0.005-0.012-1.12 0.56c0.22 0.441 0.514 0.815 0.887 1.11l0.777-0.982zM25.076 28.659c-0.131-0.267-0.211-0.61-0.211-1.050h-1.253c0 0.588 0.105 1.129 0.34 1.605l1.123-0.556zM24.866 27.608c0-0.44 0.080-0.829 0.23-1.176l-1.149-0.499c-0.211 0.482-0.334 1.043-0.334 1.634 0 0.014 0 0.028 0 0.043l-0-0.002h1.253zM25.096 26.433c0.158-0.364 0.351-0.632 0.57-0.827l-0.834-0.936c-0.376 0.335-0.668 0.764-0.885 1.264l1.149 0.499zM25.666 25.605c0.674-0.6 1.7-0.947 3.179-0.947v-1.253c-1.659 0-3.030 0.39-4.013 1.266l0.834 0.935zM28.845 24.658c0.664 0 1.29 0.126 1.884 0.378l0.489-1.154c-0.693-0.302-1.501-0.478-2.35-0.478-0.008 0-0.016 0-0.025 0h0.001v1.253zM30.723 25.033c0.555 0.242 0.913 0.584 1.125 1.021l1.126-0.547c-0.359-0.739-0.958-1.276-1.75-1.622l-0.501 1.149zM31.849 26.057c0.117 0.237 0.179 0.505 0.179 0.817h1.253c0-0.487-0.101-0.947-0.31-1.371l-1.123 0.554zM32.030 26.829l-0.073 1.009 1.25 0.091 0.073-1.009-1.25-0.091zM32.585 27.257l-4.96-0.024-0.007 1.253 4.96 0.024 0.007-1.253zM27.016 28.019c0.147 0.555 0.504 0.976 1.007 1.26l0.616-1.091c-0.248-0.14-0.362-0.302-0.412-0.488l-1.211 0.319zM28.025 29.281c0.509 0.284 1.144 0.397 1.853 0.397v-1.252c-0.595 0-0.99-0.099-1.241-0.239l-0.611 1.094zM29.878 29.678c0.762 0 1.599-0.206 2.499-0.58l-0.482-1.156c-0.805 0.335-1.474 0.484-2.016 0.484v1.252zM32.135 29.146h0.331v-1.252h-0.33v1.252zM31.841 28.473l-0.116 1.554 1.25 0.093 0.116-1.553-1.25-0.093z"></path>
</symbol>
<symbol id="icon-burger_button" viewBox="0 0 32 32">
<path style="stroke: var(--color1, #fff)" stroke-linejoin="miter" stroke-linecap="round" stroke-miterlimit="4" stroke-width="2" d="M6 10h20M6 16h20M6 22h20"></path>
</symbol>
<symbol id="icon-small-arrow" viewBox="0 0 32 32">
<path stroke-linejoin="round" stroke-linecap="round" stroke-miterlimit="4" stroke-width="5.3333" d="M10.667 5.333l13.2 10.667-13.2 10.667"></path>
</symbol>
<symbol id="icon-arrow" viewBox="0 0 82 32">
<path d="M81.414 17.414c0.362-0.362 0.586-0.862 0.586-1.414s-0.224-1.052-0.586-1.414l-12.728-12.728c-0.364-0.377-0.874-0.611-1.439-0.611-1.105 0-2 0.895-2 2 0 0.565 0.234 1.074 0.61 1.438l0.001 0.001 11.314 11.314-11.314 11.314c-0.347 0.359-0.561 0.849-0.561 1.389 0 1.105 0.895 2 2 2 0.54 0 1.030-0.214 1.39-0.562l-0.001 0.001 12.728-12.728zM0 18h80v-4h-80v4z"></path>
</symbol>
</defs>
</svg>
